<?xml version="1.0" standalone="no"?><!DOCTYPE svg PUBLIC "-//W3C//DTD SVG 1.1//EN" "http://www.w3.org/Graphics/SVG/1.1/DTD/svg11.dtd"><svg t="1700830049475" class="icon" viewBox="0 0 1024 1024" version="1.1" xmlns="http://www.w3.org/2000/svg" p-id="14933" xmlns:xlink="http://www.w3.org/1999/xlink" width="200" height="200"><path d="M514.133333 79.68c-235.648 0-426.666667 191.018667-426.666666 426.666667s191.018667 426.666667 426.666666 426.666666 426.666667-191.018667 426.666667-426.666666-190.997333-426.666667-426.666667-426.666667z m-56.213333 284.586667c0-8.149333 1.28-15.018667 3.434667-23.189334 2.581333-10.304 6.016-17.6 9.877333-24.469333a165.12 165.12 0 0 1 14.592-21.034667 139.008 139.008 0 0 1 22.314667-15.872 141.76 141.76 0 0 1 61.802666-19.306666v6.869333c0 9.024-1.706667 16.746667-3.861333 24.469333-3.008 10.304-6.016 18.026667-9.877333 24.042667-4.288 6.442667-8.576 12.885333-14.592 21.034667-6.442667 6.016-14.165333 11.157333-21.888 15.872-14.165333 8.576-33.92 16.746667-61.376 19.306666v-7.722666h-0.426667z m282.432 263.125333c-12.010667 22.741333-21.461333 41.216-29.610667 54.506667-5.141333 8.149333-9.450667 14.165333-14.165333 20.181333-12.010667 14.165333-24.042667 26.176-39.488 36.053333-14.165333 9.024-29.184 13.738667-45.077333 13.738667-30.037333 0-58.368-25.322667-86.698667-25.322667-30.037333 0-66.538667 25.322667-98.304 25.322667-15.018667 0-30.912-6.016-48.085333-18.453333-16.746667-12.010667-32.618667-33.472-51.946667-63.530667a247.338667 247.338667 0 0 1-37.781333-110.314667c-0.853333-7.296-1.28-14.592-0.853334-21.034666 0.426667-10.304 0.853333-19.306667 2.581334-29.610667 5.589333-32.618667 14.592-60.949333 34.346666-79.402667 29.610667-27.904 69.098667-37.781333 98.304-37.781333 45.077333 0 78.976 21.034667 94.869334 21.034667 15.872 0 68.245333-22.741333 105.6-22.741334 33.045333 0 75.541333 17.6 102.592 49.365334-18.026667 8.576-33.472 20.181333-45.077334 36.48a90.112 90.112 0 0 0-16.746666 53.226666c0 42.496 31.765333 81.130667 75.541333 94.869334v3.413333z" fill="#333333" p-id="14934"></path></svg>