<?xml version="1.0" standalone="no"?><!DOCTYPE svg PUBLIC "-//W3C//DTD SVG 1.1//EN" "http://www.w3.org/Graphics/SVG/1.1/DTD/svg11.dtd"><svg t="1700830065685" class="icon" viewBox="0 0 1024 1024" version="1.1" xmlns="http://www.w3.org/2000/svg" p-id="16081" xmlns:xlink="http://www.w3.org/1999/xlink" width="200" height="200"><path d="M512.1 512.4m-448 0a448 448 0 1 0 896 0 448 448 0 1 0-896 0Z" fill="#EAB465" p-id="16082"></path><path d="M674.3 808.3H349.8c-23.8 0-43.3-19.5-43.3-43.3V258.9c0-23.8 19.5-43.3 43.3-43.3h324.5c23.8 0 43.3 19.5 43.3 43.3V765c0 23.8-19.5 43.3-43.3 43.3z" fill="#FFFFFF" p-id="16083"></path><path d="M683.2 753.6H341c-7.7 0-13.9-6.2-13.9-13.9V284.2c0-7.7 6.2-13.9 13.9-13.9h342.2c7.7 0 13.9 6.2 13.9 13.9v455.4c0 7.7-6.2 14-13.9 14z" fill="#EAB465" p-id="16084"></path><path d="M512.1 782.3m-15.8 0a15.8 15.8 0 1 0 31.6 0 15.8 15.8 0 1 0-31.6 0Z" fill="#EAB465" p-id="16085"></path><path d="M550.2 496.7c1-0.5 1.4-1.7 0.9-2.7-1.4-3.3-5.7-9.5-17.3-9.5-15.8 0-21.6 5.7-21.6 5.7s-4.1-5.7-21.6-5.7-25.1 23.5-21.3 42.3c4.1 20.2 17.5 39.6 25.9 39.6s10.9-4.6 18-4.6 12.3 4.6 18.3 4.6 13.1-5.2 18-13.4c3.4-5.7 5.3-11.5 6.1-14.6 0.3-1.1-0.3-2.2-1.4-2.6-4.1-1.3-13.1-5.6-13.1-19.2 0.1-13.1 6.2-18.2 9.1-19.9zM532.4 457.5c1.6-0.3 3.1 1 3 2.6-0.3 3.8-1.4 10.3-5.6 15.1-4.2 4.8-10.5 6.8-14.2 7.6-1.6 0.3-3.1-1-3-2.6 0.3-3.8 1.4-10.3 5.6-15.1s10.5-6.8 14.2-7.6z" fill="#EAB465" p-id="16086"></path></svg>