<?xml version="1.0" standalone="no"?><!DOCTYPE svg PUBLIC "-//W3C//DTD SVG 1.1//EN" "http://www.w3.org/Graphics/SVG/1.1/DTD/svg11.dtd"><svg t="1700830121405" class="icon" viewBox="0 0 1024 1024" version="1.1" xmlns="http://www.w3.org/2000/svg" p-id="19202" xmlns:xlink="http://www.w3.org/1999/xlink" width="200" height="200"><path d="M511.994264 511.994264m-511.994264 0a511.994264 511.994264 0 1 0 1023.988529 0 511.994264 511.994264 0 1 0-1023.988529 0Z" fill="#28176D" p-id="19203"></path><path d="M647.549486 505.444207a41.90431 41.90431 0 0 0-48.419953 33.897409l-43.590577 247.433878a41.81254 41.81254 0 0 0 33.897409 48.408482l4.886733 0.871812 58.583441-329.613587z" fill="#FFFFFF" p-id="19204"></path><path d="M743.747006 274.299439l-44.519744 46.251896a302.128581 302.128581 0 0 1 107.829321 232.337773 305.202863 305.202863 0 0 1-14.992864 94.00652c-5.735602-18.66365-16.633246-31.993189-31.041079-34.528325-0.57356-0.103241-1.14712 0.344136-1.743623 0.424434-2.213942-14.258707-5.33411-28.012681-10.243786-40.413053-14.304592-35.90487-38.015571-58.503142-66.842707-63.619299a5.838843 5.838843 0 0 0-6.022383 2.007461l-23.332429-4.336116-58.526085 329.602115 23.779807 4.244346c0.630916 1.90422 2.007461 3.223408 5.070272 3.751084 39.965676 7.077733 81.101415-22.219723 108.230813-71.190295 0.424435 0.183539 0.734157 0.734157 1.215948 0.814456 26.38377 4.588482 54.167027-27.771786 62.036273-72.268588 0.160597-0.745628 0.160597-1.456843 0.263838-2.191a344.457325 344.457325 0 0 0-51.161572-424.939294z" fill="#7B49B6" p-id="19205"></path><path d="M511.971322 178.916374c-91.930232 0-175.176762 37.854974-235.538239 99.099735l45.770105 44.737697a290.875329 290.875329 0 0 1 377.024074-2.236885l44.519744-46.251896c-60.028812-58.984933-141.703788-95.348651-231.775684-95.348651z" fill="#FFFFFF" p-id="19206"></path><path d="M632.453381 830.194002c2.592492-14.556958 50.95509-288.971109 53.799949-305.294633 21.015246 6.492702 39.070922 23.607739 50.370058 51.953085 5.597948 14.201351 8.981953 30.169267 10.828817 46.905755-9.176963 15.474655-17.321519 43.670875-21.175843 65.62676-3.796969 21.405267-5.804429 49.922681-2.798974 67.737461-22.644157 44.95565-57.172483 74.562828-91.024007 73.060101z" fill="#F8C642" p-id="19207"></path><path d="M347.026874 510.755374a5.735602 5.735602 0 0 0-5.965026-2.00746c-28.884493 5.070272-52.584001 27.668545-66.86565 63.619299-4.863791 12.354487-7.972487 26.051105-10.18643 40.252456-0.321194 0-0.688272-0.321194-1.05535-0.263838-14.407833 2.535136-25.23665 15.887618-30.972252 34.585682a303.378942 303.378942 0 0 1 90.266907-324.153293l-45.770105-44.737697a344.41144 344.41144 0 0 0-47.295776 421.257037c0.103241 0.734157 0.103241 1.422429 0.206482 2.168058 7.869246 44.450917 35.641032 76.857069 61.944503 72.268588 0.321194 0 0.470319-0.401492 0.745629-0.47032 27.14087 48.752619 68.161896 77.91242 108.024331 70.846158 3.005456-0.527675 4.382-1.846864 5.012916-3.751083l20.154906-3.601959-57.356021-329.808596z" fill="#FC3A64" p-id="19208"></path><path d="M467.772772 786.752551l-43.590577-247.433878a41.927252 41.927252 0 0 0-48.431425-33.874466l-7.81189 1.456843 57.356022 329.808596 8.511633-1.514199a41.846954 41.846954 0 0 0 33.966237-48.442896z" fill="#F8C642" p-id="19209"></path><path d="M337.046927 524.945254c2.85633 16.312053 51.207456 290.726203 53.799948 305.294633-33.576215 1.422429-67.840703-27.657074-90.496331-72.062106 3.269293-17.71154 1.273304-46.882812-2.638377-68.735456-3.900209-22.472089-12.297131-51.402467-21.703519-66.601813 1.846864-16.369409 5.173513-31.993189 10.66822-45.884817 11.299136-28.356817 29.354812-45.460383 50.370059-51.953085z" fill="#FFFFFF" p-id="19210"></path></svg>